<mxfile host="65bd71144e" modified="2021-02-07T18:06:52.224Z" agent="5.0 (X11; Linux x86_64) AppleWebKit/537.36 (KHTML, like Gecko) Code/1.52.1 Chrome/83.0.4103.122 Electron/9.3.5 Safari/537.36" etag="MvgBAIjHanT_4Ku5FgzT" version="13.10.0" type="embed" pages="2">
    <diagram id="Kt-sLSM14YFMXrKfYpP9" name="Dashboard">
        <mxGraphModel dx="1602" dy="1154" grid="0" gridSize="10" guides="1" tooltips="1" connect="1" arrows="1" fold="1" page="1" pageScale="1" pageWidth="1600" pageHeight="900" background="#19202E" math="0" shadow="0">
            <root>
                <object label="" id="IjTcNjQ7ON5CcjUM1VH4-0">
                    <mxCell/>
                </object>
                <mxCell id="IjTcNjQ7ON5CcjUM1VH4-1" parent="IjTcNjQ7ON5CcjUM1VH4-0"/>
                <mxCell id="MVl414cjY7mtcjHOIsdv-3" value="" style="whiteSpace=wrap;html=1;fillColor=#1B1C1D;" parent="IjTcNjQ7ON5CcjUM1VH4-1" vertex="1">
                    <mxGeometry width="1600" height="80" as="geometry"/>
                </mxCell>
                <mxCell id="MVl414cjY7mtcjHOIsdv-4" value="&lt;span style=&quot;font-size: 26px;&quot;&gt;Logo&lt;br style=&quot;font-size: 26px;&quot;&gt;&lt;/span&gt;" style="text;html=1;strokeColor=none;fillColor=none;align=center;verticalAlign=middle;whiteSpace=wrap;rounded=0;fontSize=26;fontStyle=1;labelBackgroundColor=none;labelBorderColor=none;" parent="IjTcNjQ7ON5CcjUM1VH4-1" vertex="1">
                    <mxGeometry x="20" y="15" width="140" height="50" as="geometry"/>
                </mxCell>
                <mxCell id="MVl414cjY7mtcjHOIsdv-5" value="&lt;font style=&quot;font-size: 26px;&quot;&gt;Home&lt;/font&gt;" style="rounded=0;whiteSpace=wrap;html=1;fillColor=#6a00ff;strokeColor=#3700CC;fontColor=#ffffff;fontSize=26;fontStyle=1;labelBackgroundColor=none;labelBorderColor=none;" parent="IjTcNjQ7ON5CcjUM1VH4-1" vertex="1">
                    <mxGeometry x="160" width="120" height="80" as="geometry"/>
                </mxCell>
                <mxCell id="MVl414cjY7mtcjHOIsdv-8" value="&lt;font style=&quot;font-size: 26px;&quot;&gt;Blog&lt;/font&gt;" style="rounded=0;whiteSpace=wrap;html=1;fillColor=#fa6800;strokeColor=#C73500;fontColor=#ffffff;fontSize=26;fontStyle=1;labelBackgroundColor=none;labelBorderColor=none;" parent="IjTcNjQ7ON5CcjUM1VH4-1" vertex="1">
                    <mxGeometry x="281" width="120" height="80" as="geometry"/>
                </mxCell>
                <mxCell id="MVl414cjY7mtcjHOIsdv-9" value="&lt;font style=&quot;font-size: 26px;&quot;&gt;Aboute&lt;br style=&quot;font-size: 26px;&quot;&gt;&lt;/font&gt;" style="rounded=0;whiteSpace=wrap;html=1;fillColor=#0050ef;strokeColor=#001DBC;fontColor=#ffffff;fontSize=26;fontStyle=1;labelBackgroundColor=none;labelBorderColor=none;" parent="IjTcNjQ7ON5CcjUM1VH4-1" vertex="1">
                    <mxGeometry x="401" width="120" height="80" as="geometry"/>
                </mxCell>
                <mxCell id="MVl414cjY7mtcjHOIsdv-10" value="" style="rounded=1;whiteSpace=wrap;html=1;labelBackgroundColor=none;fontSize=26;arcSize=4;fillColor=#1B1C1D;" parent="IjTcNjQ7ON5CcjUM1VH4-1" vertex="1">
                    <mxGeometry x="1290" y="80" width="310" height="820" as="geometry"/>
                </mxCell>
                <mxCell id="MVl414cjY7mtcjHOIsdv-11" value="Pic" style="ellipse;whiteSpace=wrap;html=1;strokeWidth=2;fillWeight=2;hachureGap=8;fillStyle=dashed;sketch=1;labelBackgroundColor=none;fontSize=26;fillColor=#B266FF;" parent="IjTcNjQ7ON5CcjUM1VH4-1" vertex="1">
                    <mxGeometry x="1377.5" y="130" width="135" height="120" as="geometry"/>
                </mxCell>
                <mxCell id="MVl414cjY7mtcjHOIsdv-12" value="&lt;b&gt;Dashboard&lt;/b&gt;" style="text;html=1;strokeColor=none;fillColor=none;align=center;verticalAlign=middle;whiteSpace=wrap;rounded=0;labelBackgroundColor=none;fontSize=26;" parent="IjTcNjQ7ON5CcjUM1VH4-1" vertex="1">
                    <mxGeometry x="1370" y="90" width="150" height="40" as="geometry"/>
                </mxCell>
                <mxCell id="MVl414cjY7mtcjHOIsdv-13" value="&lt;font style=&quot;font-size: 22px&quot;&gt;Username&lt;/font&gt;" style="rounded=1;whiteSpace=wrap;html=1;arcSize=50;strokeColor=none;strokeWidth=1;fillColor=#6C767D;fontColor=#FFFFFF;whiteSpace=wrap;align=left;verticalAlign=middle;spacingLeft=0;fontStyle=1;fontSize=14;spacing=10;labelBackgroundColor=none;" parent="IjTcNjQ7ON5CcjUM1VH4-1" vertex="1">
                    <mxGeometry x="1380" y="261" width="132.5" height="30" as="geometry"/>
                </mxCell>
                <mxCell id="MVl414cjY7mtcjHOIsdv-15" value="A simple success alert!" style="html=1;shadow=0;dashed=0;shape=mxgraph.bootstrap.rrect;rSize=5;strokeColor=none;strokeWidth=1;fillColor=#E0F0D6;fontColor=#59B958;whiteSpace=wrap;align=center;verticalAlign=middle;spacingLeft=10;labelBackgroundColor=none;fontStyle=1;fontSize=24;" parent="IjTcNjQ7ON5CcjUM1VH4-1" vertex="1">
                    <mxGeometry x="40" y="100" width="1220" height="50" as="geometry"/>
                </mxCell>
                <mxCell id="MVl414cjY7mtcjHOIsdv-32" value="" style="&lt;div class=&quot;mxgraph&quot; style=&quot;max-width:100%;border:1px solid transparent;&quot; data-mxgraph=&quot;{&amp;quot;highlight&amp;quot;:&amp;quot;#0000ff&amp;quot;,&amp;quot;nav&amp;quot;:true,&amp;quot;resize&amp;quot;:true,&amp;quot;toolbar&amp;quot;:&amp;quot;zoom layers lightbox&amp;quot;,&amp;quot;edit&amp;quot;:&amp;quot;_blank&amp;quot;,&amp;quot;xml&amp;quot;:&amp;quot;&amp;lt;mxfile host=\&amp;quot;d77a90c8-882b-4787-996b-fc89e377af4f\&amp;quot; modified=\&amp;quot;2021-02-07T17:09:35.005Z\&amp;quot; agent=\&amp;quot;5.0 (X11; Linux x86_64) AppleWebKit/537.36 (KHTML, like Gecko) Code/1.52.1 Chrome/83.0.4103.122 Electron/9.3.5 Safari/537.36\&amp;quot; version=\&amp;quot;13.10.0\&amp;quot; etag=\&amp;quot;2SNwCzZ1S8-yAsnF6go9\&amp;quot; type=\&amp;quot;embed\&amp;quot;&amp;gt;&amp;lt;diagram id=\&amp;quot;Kt-sLSM14YFMXrKfYpP9\&amp;quot; name=\&amp;quot;Page-1\&amp;quot;&amp;gt;&amp;lt;mxGraphModel dx=\&amp;quot;942\&amp;quot; dy=\&amp;quot;679\&amp;quot; grid=\&amp;quot;1\&amp;quot; gridSize=\&amp;quot;10\&amp;quot; guides=\&amp;quot;1\&amp;quot; tooltips=\&amp;quot;1\&amp;quot; connect=\&amp;quot;1\&amp;quot; arrows=\&amp;quot;1\&amp;quot; fold=\&amp;quot;1\&amp;quot; page=\&amp;quot;1\&amp;quot; pageScale=\&amp;quot;1\&amp;quot; pageWidth=\&amp;quot;1600\&amp;quot; pageHeight=\&amp;quot;900\&amp;quot; background=\&amp;quot;#00253D\&amp;quot; math=\&amp;quot;0\&amp;quot; shadow=\&amp;quot;0\&amp;quot;&amp;gt;&amp;lt;root&amp;gt;&amp;lt;mxCell id=\&amp;quot;IjTcNjQ7ON5CcjUM1VH4-0\&amp;quot;/&amp;gt;&amp;lt;mxCell id=\&amp;quot;IjTcNjQ7ON5CcjUM1VH4-1\&amp;quot; parent=\&amp;quot;IjTcNjQ7ON5CcjUM1VH4-0\&amp;quot;/&amp;gt;&amp;lt;mxCell id=\&amp;quot;MVl414cjY7mtcjHOIsdv-3\&amp;quot; value=\&amp;quot;\&amp;quot; style=\&amp;quot;whiteSpace=wrap;html=1;fillColor=#ffcccc;\&amp;quot; vertex=\&amp;quot;1\&amp;quot; parent=\&amp;quot;IjTcNjQ7ON5CcjUM1VH4-1\&amp;quot;&amp;gt;&amp;lt;mxGeometry width=\&amp;quot;1600\&amp;quot; height=\&amp;quot;80\&amp;quot; as=\&amp;quot;geometry\&amp;quot;/&amp;gt;&amp;lt;/mxCell&amp;gt;&amp;lt;mxCell id=\&amp;quot;MVl414cjY7mtcjHOIsdv-4\&amp;quot; value=\&amp;quot;&amp;amp;lt;span style=&amp;amp;quot;font-size: 26px;&amp;amp;quot;&amp;amp;gt;Logo&amp;amp;lt;br style=&amp;amp;quot;font-size: 26px;&amp;amp;quot;&amp;amp;gt;&amp;amp;lt;/span&amp;amp;gt;\&amp;quot; style=\&amp;quot;text;html=1;strokeColor=#36393d;fillColor=none;align=center;verticalAlign=middle;whiteSpace=wrap;rounded=0;fontSize=26;fontStyle=1;labelBackgroundColor=none;labelBorderColor=none;\&amp;quot; vertex=\&amp;quot;1\&amp;quot; parent=\&amp;quot;IjTcNjQ7ON5CcjUM1VH4-1\&amp;quot;&amp;gt;&amp;lt;mxGeometry x=\&amp;quot;20\&amp;quot; y=\&amp;quot;15\&amp;quot; width=\&amp;quot;140\&amp;quot; height=\&amp;quot;50\&amp;quot; as=\&amp;quot;geometry\&amp;quot;/&amp;gt;&amp;lt;/mxCell&amp;gt;&amp;lt;mxCell id=\&amp;quot;MVl414cjY7mtcjHOIsdv-5\&amp;quot; value=\&amp;quot;&amp;amp;lt;font style=&amp;amp;quot;font-size: 26px;&amp;amp;quot;&amp;amp;gt;Home&amp;amp;lt;/font&amp;amp;gt;\&amp;quot; style=\&amp;quot;rounded=0;whiteSpace=wrap;html=1;fillColor=#6a00ff;strokeColor=#3700CC;fontSize=26;fontStyle=1;labelBackgroundColor=none;labelBorderColor=none;\&amp;quot; vertex=\&amp;quot;1\&amp;quot; parent=\&amp;quot;IjTcNjQ7ON5CcjUM1VH4-1\&amp;quot;&amp;gt;&amp;lt;mxGeometry x=\&amp;quot;160\&amp;quot; width=\&amp;quot;120\&amp;quot; height=\&amp;quot;80\&amp;quot; as=\&amp;quot;geometry\&amp;quot;/&amp;gt;&amp;lt;/mxCell&amp;gt;&amp;lt;mxCell id=\&amp;quot;MVl414cjY7mtcjHOIsdv-8\&amp;quot; value=\&amp;quot;&amp;amp;lt;font style=&amp;amp;quot;font-size: 26px;&amp;amp;quot;&amp;amp;gt;Blog&amp;amp;lt;/font&amp;amp;gt;\&amp;quot; style=\&amp;quot;rounded=0;whiteSpace=wrap;html=1;fillColor=#fa6800;strokeColor=#C73500;fontColor=#ffffff;fontSize=26;fontStyle=1;labelBackgroundColor=none;labelBorderColor=none;\&amp;quot; vertex=\&amp;quot;1\&amp;quot; parent=\&amp;quot;IjTcNjQ7ON5CcjUM1VH4-1\&amp;quot;&amp;gt;&amp;lt;mxGeometry x=\&amp;quot;281\&amp;quot; width=\&amp;quot;120\&amp;quot; height=\&amp;quot;80\&amp;quot; as=\&amp;quot;geometry\&amp;quot;/&amp;gt;&amp;lt;/mxCell&amp;gt;&amp;lt;mxCell id=\&amp;quot;MVl414cjY7mtcjHOIsdv-9\&amp;quot; value=\&amp;quot;&amp;amp;lt;font style=&amp;amp;quot;font-size: 26px;&amp;amp;quot;&amp;amp;gt;Aboute&amp;amp;lt;br style=&amp;amp;quot;font-size: 26px;&amp;amp;quot;&amp;amp;gt;&amp;amp;lt;/font&amp;amp;gt;\&amp;quot; style=\&amp;quot;rounded=0;whiteSpace=wrap;html=1;fillColor=#0050ef;strokeColor=#001DBC;fontColor=#ffffff;fontSize=26;fontStyle=1;labelBackgroundColor=none;labelBorderColor=none;\&amp;quot; vertex=\&amp;quot;1\&amp;quot; parent=\&amp;quot;IjTcNjQ7ON5CcjUM1VH4-1\&amp;quot;&amp;gt;&amp;lt;mxGeometry x=\&amp;quot;401\&amp;quot; width=\&amp;quot;120\&amp;quot; height=\&amp;quot;80\&amp;quot; as=\&amp;quot;geometry\&amp;quot;/&amp;gt;&amp;lt;/mxCell&amp;gt;&amp;lt;mxCell id=\&amp;quot;MVl414cjY7mtcjHOIsdv-10\&amp;quot; value=\&amp;quot;\&amp;quot; style=\&amp;quot;rounded=1;whiteSpace=wrap;html=1;labelBackgroundColor=none;fontSize=26;arcSize=4;fillColor=#191919;\&amp;quot; vertex=\&amp;quot;1\&amp;quot; parent=\&amp;quot;IjTcNjQ7ON5CcjUM1VH4-1\&amp;quot;&amp;gt;&amp;lt;mxGeometry x=\&amp;quot;1290\&amp;quot; y=\&amp;quot;80\&amp;quot; width=\&amp;quot;310\&amp;quot; height=\&amp;quot;820\&amp;quot; as=\&amp;quot;geometry\&amp;quot;/&amp;gt;&amp;lt;/mxCell&amp;gt;&amp;lt;mxCell id=\&amp;quot;MVl414cjY7mtcjHOIsdv-11\&amp;quot; value=\&amp;quot;Pic\&amp;quot; style=\&amp;quot;ellipse;whiteSpace=wrap;html=1;strokeWidth=2;fillWeight=2;hachureGap=8;fillStyle=dashed;sketch=1;labelBackgroundColor=none;fontSize=26;fillColor=#B266FF;\&amp;quot; vertex=\&amp;quot;1\&amp;quot; parent=\&amp;quot;IjTcNjQ7ON5CcjUM1VH4-1\&amp;quot;&amp;gt;&amp;lt;mxGeometry x=\&amp;quot;1377.5\&amp;quot; y=\&amp;quot;130\&amp;quot; width=\&amp;quot;135\&amp;quot; height=\&amp;quot;120\&amp;quot; as=\&amp;quot;geometry\&amp;quot;/&amp;gt;&amp;lt;/mxCell&amp;gt;&amp;lt;mxCell id=\&amp;quot;MVl414cjY7mtcjHOIsdv-12\&amp;quot; value=\&amp;quot;&amp;amp;lt;b&amp;amp;gt;Dashboard&amp;amp;lt;/b&amp;amp;gt;\&amp;quot; style=\&amp;quot;text;html=1;strokeColor=none;fillColor=none;align=center;verticalAlign=middle;whiteSpace=wrap;rounded=0;labelBackgroundColor=none;fontSize=26;\&amp;quot; vertex=\&amp;quot;1\&amp;quot; parent=\&amp;quot;IjTcNjQ7ON5CcjUM1VH4-1\&amp;quot;&amp;gt;&amp;lt;mxGeometry x=\&amp;quot;1370\&amp;quot; y=\&amp;quot;90\&amp;quot; width=\&amp;quot;150\&amp;quot; height=\&amp;quot;40\&amp;quot; as=\&amp;quot;geometry\&amp;quot;/&amp;gt;&amp;lt;/mxCell&amp;gt;&amp;lt;mxCell id=\&amp;quot;MVl414cjY7mtcjHOIsdv-13\&amp;quot; value=\&amp;quot;&amp;amp;lt;font style=&amp;amp;quot;font-size: 22px&amp;amp;quot;&amp;amp;gt;Username&amp;amp;lt;/font&amp;amp;gt;\&amp;quot; style=\&amp;quot;rounded=1;whiteSpace=wrap;html=1;arcSize=50;strokeColor=none;strokeWidth=1;fillColor=#6C767D;fontColor=#FFFFFF;whiteSpace=wrap;align=left;verticalAlign=middle;spacingLeft=0;fontStyle=1;fontSize=14;spacing=10;labelBackgroundColor=none;\&amp;quot; vertex=\&amp;quot;1\&amp;quot; parent=\&amp;quot;IjTcNjQ7ON5CcjUM1VH4-1\&amp;quot;&amp;gt;&amp;lt;mxGeometry x=\&amp;quot;1380\&amp;quot; y=\&amp;quot;261\&amp;quot; width=\&amp;quot;132.5\&amp;quot; height=\&amp;quot;30\&amp;quot; as=\&amp;quot;geometry\&amp;quot;/&amp;gt;&amp;lt;/mxCell&amp;gt;&amp;lt;mxCell id=\&amp;quot;MVl414cjY7mtcjHOIsdv-15\&amp;quot; value=\&amp;quot;A simple success alert!\&amp;quot; style=\&amp;quot;html=1;shadow=0;dashed=0;shape=mxgraph.bootstrap.rrect;rSize=5;strokeColor=none;strokeWidth=1;fillColor=#E0F0D6;fontColor=#59B958;whiteSpace=wrap;align=center;verticalAlign=middle;spacingLeft=10;labelBackgroundColor=none;fontStyle=1;fontSize=24;\&amp;quot; vertex=\&amp;quot;1\&amp;quot; parent=\&amp;quot;IjTcNjQ7ON5CcjUM1VH4-1\&amp;quot;&amp;gt;&amp;lt;mxGeometry x=\&amp;quot;40\&amp;quot; y=\&amp;quot;100\&amp;quot; width=\&amp;quot;1220\&amp;quot; height=\&amp;quot;50\&amp;quot; as=\&amp;quot;geometry\&amp;quot;/&amp;gt;&amp;lt;/mxCell&amp;gt;&amp;lt;mxCell id=\&amp;quot;MVl414cjY7mtcjHOIsdv-32\&amp;quot; value=\&amp;quot;\&amp;quot; style=\&amp;quot;html=1;shadow=0;dashed=0;shape=mxgraph.bootstrap.rrect;rSize=5;strokeColor=none;html=1;whiteSpace=wrap;fillColor=#6C767D;fontColor=#ffffff;labelBackgroundColor=none;align=center;\&amp;quot; vertex=\&amp;quot;1\&amp;quot; parent=\&amp;quot;IjTcNjQ7ON5CcjUM1VH4-1\&amp;quot;&amp;gt;&amp;lt;mxGeometry x=\&amp;quot;1320\&amp;quot; y=\&amp;quot;320\&amp;quot; width=\&amp;quot;220\&amp;quot; height=\&amp;quot;420\&amp;quot; as=\&amp;quot;geometry\&amp;quot;/&amp;gt;&amp;lt;/mxCell&amp;gt;&amp;lt;mxCell id=\&amp;quot;MVl414cjY7mtcjHOIsdv-33\&amp;quot; value=\&amp;quot;Button\&amp;quot; style=\&amp;quot;strokeColor=inherit;fillColor=inherit;fontColor=inherit;html=1;shadow=0;dashed=0;shape=mxgraph.bootstrap.topButton;rSize=5;perimeter=none;whiteSpace=wrap;resizeWidth=1;\&amp;quot; vertex=\&amp;quot;1\&amp;quot; parent=\&amp;quot;MVl414cjY7mtcjHOIsdv-32\&amp;quot;&amp;gt;&amp;lt;mxGeometry width=\&amp;quot;220\&amp;quot; height=\&amp;quot;30\&amp;quot; relative=\&amp;quot;1\&amp;quot; as=\&amp;quot;geometry\&amp;quot;/&amp;gt;&amp;lt;/mxCell&amp;gt;&amp;lt;mxCell id=\&amp;quot;MVl414cjY7mtcjHOIsdv-34\&amp;quot; value=\&amp;quot;Button\&amp;quot; style=\&amp;quot;strokeColor=inherit;fillColor=inherit;fontColor=inherit;html=1;shadow=0;dashed=0;perimeter=none;whiteSpace=wrap;resizeWidth=1;\&amp;quot; vertex=\&amp;quot;1\&amp;quot; parent=\&amp;quot;MVl414cjY7mtcjHOIsdv-32\&amp;quot;&amp;gt;&amp;lt;mxGeometry width=\&amp;quot;220\&amp;quot; height=\&amp;quot;30\&amp;quot; relative=\&amp;quot;1\&amp;quot; as=\&amp;quot;geometry\&amp;quot;&amp;gt;&amp;lt;mxPoint y=\&amp;quot;30\&amp;quot; as=\&amp;quot;offset\&amp;quot;/&amp;gt;&amp;lt;/mxGeometry&amp;gt;&amp;lt;/mxCell&amp;gt;&amp;lt;mxCell id=\&amp;quot;MVl414cjY7mtcjHOIsdv-35\&amp;quot; value=\&amp;quot;Button\&amp;quot; style=\&amp;quot;strokeColor=inherit;fillColor=inherit;fontColor=inherit;html=1;shadow=0;dashed=0;perimeter=none;whiteSpace=wrap;resizeWidth=1;\&amp;quot; vertex=\&amp;quot;1\&amp;quot; parent=\&amp;quot;MVl414cjY7mtcjHOIsdv-32\&amp;quot;&amp;gt;&amp;lt;mxGeometry width=\&amp;quot;220\&amp;quot; height=\&amp;quot;30\&amp;quot; relative=\&amp;quot;1\&amp;quot; as=\&amp;quot;geometry\&amp;quot;&amp;gt;&amp;lt;mxPoint y=\&amp;quot;60\&amp;quot; as=\&amp;quot;offset\&amp;quot;/&amp;gt;&amp;lt;/mxGeometry&amp;gt;&amp;lt;/mxCell&amp;gt;&amp;lt;mxCell id=\&amp;quot;MVl414cjY7mtcjHOIsdv-36\&amp;quot; value=\&amp;quot;Button\&amp;quot; style=\&amp;quot;strokeColor=inherit;fillColor=inherit;fontColor=inherit;html=1;shadow=0;dashed=0;perimeter=none;whiteSpace=wrap;resizeWidth=1;\&amp;quot; vertex=\&amp;quot;1\&amp;quot; parent=\&amp;quot;MVl414cjY7mtcjHOIsdv-32\&amp;quot;&amp;gt;&amp;lt;mxGeometry width=\&amp;quot;220\&amp;quot; height=\&amp;quot;30\&amp;quot; relative=\&amp;quot;1\&amp;quot; as=\&amp;quot;geometry\&amp;quot;&amp;gt;&amp;lt;mxPoint y=\&amp;quot;90\&amp;quot; as=\&amp;quot;offset\&amp;quot;/&amp;gt;&amp;lt;/mxGeometry&amp;gt;&amp;lt;/mxCell&amp;gt;&amp;lt;mxCell id=\&amp;quot;MVl414cjY7mtcjHOIsdv-37\&amp;quot; value=\&amp;quot;Button\&amp;quot; style=\&amp;quot;strokeColor=inherit;fillColor=inherit;fontColor=inherit;html=1;shadow=0;dashed=0;perimeter=none;whiteSpace=wrap;resizeWidth=1;\&amp;quot; vertex=\&amp;quot;1\&amp;quot; parent=\&amp;quot;MVl414cjY7mtcjHOIsdv-32\&amp;quot;&amp;gt;&amp;lt;mxGeometry width=\&amp;quot;220\&amp;quot; height=\&amp;quot;30\&amp;quot; relative=\&amp;quot;1\&amp;quot; as=\&amp;quot;geometry\&amp;quot;&amp;gt;&amp;lt;mxPoint y=\&amp;quot;120\&amp;quot; as=\&amp;quot;offset\&amp;quot;/&amp;gt;&amp;lt;/mxGeometry&amp;gt;&amp;lt;/mxCell&amp;gt;&amp;lt;mxCell id=\&amp;quot;MVl414cjY7mtcjHOIsdv-38\&amp;quot; value=\&amp;quot;Button\&amp;quot; style=\&amp;quot;strokeColor=inherit;fillColor=inherit;fontColor=inherit;html=1;shadow=0;dashed=0;shape=mxgraph.bootstrap.bottomButton;rSize=5;perimeter=none;whiteSpace=wrap;resizeWidth=1;resizeHeight=0;\&amp;quot; vertex=\&amp;quot;1\&amp;quot; parent=\&amp;quot;MVl414cjY7mtcjHOIsdv-32\&amp;quot;&amp;gt;&amp;lt;mxGeometry y=\&amp;quot;1\&amp;quot; width=\&amp;quot;220\&amp;quot; height=\&amp;quot;30\&amp;quot; relative=\&amp;quot;1\&amp;quot; as=\&amp;quot;geometry\&amp;quot;&amp;gt;&amp;lt;mxPoint y=\&amp;quot;-30\&amp;quot; as=\&amp;quot;offset\&amp;quot;/&amp;gt;&amp;lt;/mxGeometry&amp;gt;&amp;lt;/mxCell&amp;gt;&amp;lt;/root&amp;gt;&amp;lt;/mxGraphModel&amp;gt;&amp;lt;/diagram&amp;gt;&amp;lt;/mxfile&amp;gt;&amp;quot;}&quot;&gt;&lt;/div&gt;&#10;&lt;script type=&quot;text/javascript&quot; src=&quot;https://viewer.diagrams.net/js/viewer-static.min.js&quot;&gt;&lt;/script&gt;" parent="IjTcNjQ7ON5CcjUM1VH4-1" vertex="1">
                    <mxGeometry x="1330" y="320" width="220" height="420" as="geometry"/>
                </mxCell>
                <mxCell id="MVl414cjY7mtcjHOIsdv-33" value="Button" style="strokeColor=inherit;fillColor=inherit;gradientColor=inherit;fontColor=inherit;html=1;shadow=0;dashed=0;shape=mxgraph.bootstrap.topButton;rSize=5;perimeter=none;whiteSpace=wrap;resizeWidth=1;" parent="MVl414cjY7mtcjHOIsdv-32" vertex="1">
                    <mxGeometry width="220" height="30" relative="1" as="geometry"/>
                </mxCell>
                <mxCell id="MVl414cjY7mtcjHOIsdv-34" value="Button" style="strokeColor=inherit;fillColor=inherit;gradientColor=inherit;fontColor=inherit;html=1;shadow=0;dashed=0;perimeter=none;whiteSpace=wrap;resizeWidth=1;" parent="MVl414cjY7mtcjHOIsdv-32" vertex="1">
                    <mxGeometry width="220" height="30" relative="1" as="geometry">
                        <mxPoint y="30" as="offset"/>
                    </mxGeometry>
                </mxCell>
                <mxCell id="MVl414cjY7mtcjHOIsdv-35" value="Button" style="strokeColor=inherit;fillColor=inherit;gradientColor=inherit;fontColor=inherit;html=1;shadow=0;dashed=0;perimeter=none;whiteSpace=wrap;resizeWidth=1;" parent="MVl414cjY7mtcjHOIsdv-32" vertex="1">
                    <mxGeometry width="220" height="30" relative="1" as="geometry">
                        <mxPoint y="60" as="offset"/>
                    </mxGeometry>
                </mxCell>
                <mxCell id="MVl414cjY7mtcjHOIsdv-36" value="Button" style="strokeColor=inherit;fillColor=inherit;gradientColor=inherit;fontColor=inherit;html=1;shadow=0;dashed=0;perimeter=none;whiteSpace=wrap;resizeWidth=1;" parent="MVl414cjY7mtcjHOIsdv-32" vertex="1">
                    <mxGeometry width="220" height="30" relative="1" as="geometry">
                        <mxPoint y="90" as="offset"/>
                    </mxGeometry>
                </mxCell>
                <mxCell id="MVl414cjY7mtcjHOIsdv-37" value="Button" style="strokeColor=inherit;fillColor=inherit;gradientColor=inherit;fontColor=inherit;html=1;shadow=0;dashed=0;perimeter=none;whiteSpace=wrap;resizeWidth=1;" parent="MVl414cjY7mtcjHOIsdv-32" vertex="1">
                    <mxGeometry width="220" height="30" relative="1" as="geometry">
                        <mxPoint y="120" as="offset"/>
                    </mxGeometry>
                </mxCell>
                <mxCell id="MVl414cjY7mtcjHOIsdv-38" value="Button" style="strokeColor=inherit;fillColor=inherit;gradientColor=inherit;fontColor=inherit;html=1;shadow=0;dashed=0;shape=mxgraph.bootstrap.bottomButton;rSize=5;perimeter=none;whiteSpace=wrap;resizeWidth=1;resizeHeight=0;" parent="MVl414cjY7mtcjHOIsdv-32" vertex="1">
                    <mxGeometry y="1" width="220" height="30" relative="1" as="geometry">
                        <mxPoint y="-30" as="offset"/>
                    </mxGeometry>
                </mxCell>
                <mxCell id="MVl414cjY7mtcjHOIsdv-40" value="Success" style="html=1;shadow=0;dashed=0;shape=mxgraph.bootstrap.rrect;rSize=5;strokeColor=none;strokeWidth=1;fillColor=#33A64C;fontColor=#FFFFFF;whiteSpace=wrap;align=center;verticalAlign=middle;spacingLeft=0;fontStyle=0;fontSize=16;spacing=5;labelBackgroundColor=none;" parent="IjTcNjQ7ON5CcjUM1VH4-1" vertex="1">
                    <mxGeometry x="1310" y="770" width="90" height="40" as="geometry"/>
                </mxCell>
                <mxCell id="MVl414cjY7mtcjHOIsdv-41" value="Danger" style="html=1;shadow=0;dashed=0;shape=mxgraph.bootstrap.rrect;rSize=5;strokeColor=none;strokeWidth=1;fillColor=#DB2843;fontColor=#FFFFFF;whiteSpace=wrap;align=center;verticalAlign=middle;spacingLeft=0;fontStyle=0;fontSize=16;spacing=5;labelBackgroundColor=none;" parent="IjTcNjQ7ON5CcjUM1VH4-1" vertex="1">
                    <mxGeometry x="1410" y="770" width="80" height="40" as="geometry"/>
                </mxCell>
                <mxCell id="MVl414cjY7mtcjHOIsdv-42" value="Primary" style="html=1;shadow=0;dashed=0;shape=mxgraph.bootstrap.rrect;rSize=5;strokeColor=none;strokeWidth=1;fillColor=#0085FC;fontColor=#FFFFFF;whiteSpace=wrap;align=center;verticalAlign=middle;spacingLeft=0;fontStyle=0;fontSize=16;spacing=5;labelBackgroundColor=none;" parent="IjTcNjQ7ON5CcjUM1VH4-1" vertex="1">
                    <mxGeometry x="1500" y="770" width="80" height="40" as="geometry"/>
                </mxCell>
                <mxCell id="MVl414cjY7mtcjHOIsdv-43" value="" style="html=1;shadow=0;dashed=0;shape=mxgraph.bootstrap.rrect;rSize=5;strokeColor=none;fillColor=#f6f6f6;whiteSpace=wrap;labelBackgroundColor=none;fontSize=24;align=center;" parent="IjTcNjQ7ON5CcjUM1VH4-1" vertex="1">
                    <mxGeometry x="1321.25" y="830" width="250" height="20" as="geometry"/>
                </mxCell>
                <mxCell id="MVl414cjY7mtcjHOIsdv-44" value="" style="html=1;shadow=0;dashed=0;shape=mxgraph.bootstrap.leftButtonStriped;fillColor=#DB524C;fontColor=#FFFFFF;whiteSpace=wrap;" parent="MVl414cjY7mtcjHOIsdv-43" vertex="1">
                    <mxGeometry width="156.25" height="20" as="geometry"/>
                </mxCell>
                <mxCell id="MVl414cjY7mtcjHOIsdv-49" value="" style="html=1;shadow=0;dashed=0;shape=mxgraph.bootstrap.rrect;rSize=5;strokeColor=none;fillColor=#f6f6f6;whiteSpace=wrap;labelBackgroundColor=none;fontSize=24;align=center;" parent="IjTcNjQ7ON5CcjUM1VH4-1" vertex="1">
                    <mxGeometry x="1321.25" y="860" width="248.75" height="20" as="geometry"/>
                </mxCell>
                <mxCell id="MVl414cjY7mtcjHOIsdv-50" value="" style="html=1;shadow=0;dashed=0;shape=mxgraph.bootstrap.leftButtonStriped;fillColor=#59B958;fontColor=#FFFFFF;whiteSpace=wrap;" parent="MVl414cjY7mtcjHOIsdv-49" vertex="1">
                    <mxGeometry width="155.46875" height="20" as="geometry"/>
                </mxCell>
                <mxCell id="MVl414cjY7mtcjHOIsdv-52" value="Hello, world! This is a toast message." style="html=1;shadow=0;dashed=0;shape=mxgraph.bootstrap.rrect;rSize=5;strokeColor=#DFE0E0;html=1;whiteSpace=wrap;fillColor=#FEFEFE;fontColor=#212529;align=left;spacing=15;verticalAlign=bottom;labelBackgroundColor=none;" parent="IjTcNjQ7ON5CcjUM1VH4-1" vertex="1">
                    <mxGeometry x="20" y="800" width="320" height="80" as="geometry"/>
                </mxCell>
                <mxCell id="MVl414cjY7mtcjHOIsdv-53" value="" style="html=1;shadow=0;dashed=0;shape=mxgraph.bootstrap.topButton;rSize=5;strokeColor=inherit;fillColor=#ffffff;resizeWidth=1;" parent="MVl414cjY7mtcjHOIsdv-52" vertex="1">
                    <mxGeometry width="320" height="40" relative="1" as="geometry"/>
                </mxCell>
                <mxCell id="MVl414cjY7mtcjHOIsdv-54" value="Bootstrap" style="html=1;shadow=0;dashed=0;shape=mxgraph.bootstrap.rrect;rSize=5;strokeColor=#DFE0E0;html=1;whiteSpace=wrap;fillColor=#0084FC;fontColor=#6C767D;align=left;spacing=10;verticalAlign=middle;labelPosition=right;verticalLabelPosition=middle;fontStyle=1" parent="MVl414cjY7mtcjHOIsdv-53" vertex="1">
                    <mxGeometry y="0.5" width="20" height="20" relative="1" as="geometry">
                        <mxPoint x="10" y="-10" as="offset"/>
                    </mxGeometry>
                </mxCell>
                <mxCell id="MVl414cjY7mtcjHOIsdv-55" value="11 mins ago" style="html=1;shadow=0;dashed=0;shape=mxgraph.bootstrap.x;strokeColor=#808080;html=1;fontColor=#6C767D;align=right;spacing=10;verticalAlign=middle;labelPosition=left;verticalLabelPosition=middle;fontStyle=0;strokeWidth=2;fontSize=11;fillColor=none;" parent="MVl414cjY7mtcjHOIsdv-53" vertex="1">
                    <mxGeometry x="1" y="0.5" width="10" height="10" relative="1" as="geometry">
                        <mxPoint x="-25" y="-4" as="offset"/>
                    </mxGeometry>
                </mxCell>
                <mxCell id="MVl414cjY7mtcjHOIsdv-66" value="&lt;b&gt;&lt;font style=&quot;font-size: 20px&quot;&gt;Danger card title&lt;/font&gt;&lt;/b&gt;&lt;br style=&quot;font-size: 14px&quot;&gt;&lt;br style=&quot;font-size: 14px&quot;&gt;Some quick example text to build on the card title and make up the bulk of the card's content." style="html=1;shadow=0;dashed=0;shape=mxgraph.bootstrap.rrect;rSize=5;strokeColor=#BA2239;html=1;whiteSpace=wrap;fillColor=#DB2843;fontColor=#ffffff;verticalAlign=bottom;align=left;spacing=20;spacingBottom=0;fontSize=14;labelBackgroundColor=none;" parent="IjTcNjQ7ON5CcjUM1VH4-1" vertex="1">
                    <mxGeometry x="990" y="170" width="250" height="180" as="geometry"/>
                </mxCell>
                <mxCell id="MVl414cjY7mtcjHOIsdv-67" value="Header" style="html=1;shadow=0;dashed=0;shape=mxgraph.bootstrap.topButton;rSize=5;perimeter=none;whiteSpace=wrap;fillColor=#D42741;strokeColor=#BA2239;fontColor=#ffffff;resizeWidth=1;fontSize=18;align=left;spacing=20;" parent="MVl414cjY7mtcjHOIsdv-66" vertex="1">
                    <mxGeometry width="250" height="50" relative="1" as="geometry"/>
                </mxCell>
                <mxCell id="MVl414cjY7mtcjHOIsdv-68" value="&lt;b&gt;&lt;font style=&quot;font-size: 20px&quot;&gt;Success card title&lt;/font&gt;&lt;/b&gt;&lt;br style=&quot;font-size: 14px&quot;&gt;&lt;br style=&quot;font-size: 14px&quot;&gt;Some quick example text to build on the card title and make up the bulk of the card's content." style="html=1;shadow=0;dashed=0;shape=mxgraph.bootstrap.rrect;rSize=5;strokeColor=#2B8D40;html=1;whiteSpace=wrap;fillColor=#33A64C;fontColor=#ffffff;verticalAlign=bottom;align=left;spacing=20;spacingBottom=0;fontSize=14;labelBackgroundColor=none;" parent="IjTcNjQ7ON5CcjUM1VH4-1" vertex="1">
                    <mxGeometry x="690" y="170" width="250" height="180" as="geometry"/>
                </mxCell>
                <mxCell id="MVl414cjY7mtcjHOIsdv-69" value="Header" style="html=1;shadow=0;dashed=0;shape=mxgraph.bootstrap.topButton;rSize=5;perimeter=none;whiteSpace=wrap;fillColor=#31A14A;strokeColor=#2B8D40;fontColor=#ffffff;resizeWidth=1;fontSize=18;align=left;spacing=20;" parent="MVl414cjY7mtcjHOIsdv-68" vertex="1">
                    <mxGeometry width="250" height="50" relative="1" as="geometry"/>
                </mxCell>
                <mxCell id="MVl414cjY7mtcjHOIsdv-70" value="&lt;b&gt;&lt;font style=&quot;font-size: 20px&quot;&gt;Warning card title&lt;/font&gt;&lt;/b&gt;&lt;br style=&quot;font-size: 14px&quot;&gt;&lt;br style=&quot;font-size: 14px&quot;&gt;Some quick example text to build on the card title and make up the bulk of the card's content." style="html=1;shadow=0;dashed=0;shape=mxgraph.bootstrap.rrect;rSize=5;strokeColor=#D89F20;html=1;whiteSpace=wrap;fillColor=#FFBC26;fontColor=#ffffff;verticalAlign=bottom;align=left;spacing=20;spacingBottom=0;fontSize=14;labelBackgroundColor=none;" parent="IjTcNjQ7ON5CcjUM1VH4-1" vertex="1">
                    <mxGeometry x="390" y="170" width="250" height="180" as="geometry"/>
                </mxCell>
                <mxCell id="MVl414cjY7mtcjHOIsdv-71" value="Header" style="html=1;shadow=0;dashed=0;shape=mxgraph.bootstrap.topButton;rSize=5;perimeter=none;whiteSpace=wrap;fillColor=#F7B625;strokeColor=#D89F20;fontColor=#ffffff;resizeWidth=1;fontSize=18;align=left;spacing=20;" parent="MVl414cjY7mtcjHOIsdv-70" vertex="1">
                    <mxGeometry width="250" height="50" relative="1" as="geometry"/>
                </mxCell>
                <mxCell id="MVl414cjY7mtcjHOIsdv-72" value="&lt;b&gt;&lt;font style=&quot;font-size: 20px&quot;&gt;Primary card title&lt;/font&gt;&lt;/b&gt;&lt;br style=&quot;font-size: 14px&quot;&gt;&lt;br style=&quot;font-size: 14px&quot;&gt;Some quick example text to build on the card title and make up the bulk of the card's content." style="html=1;shadow=0;dashed=0;shape=mxgraph.bootstrap.rrect;rSize=5;strokeColor=#0071D5;html=1;whiteSpace=wrap;fillColor=#0085FC;fontColor=#ffffff;verticalAlign=bottom;align=left;spacing=20;spacingBottom=0;fontSize=14;labelBackgroundColor=none;" parent="IjTcNjQ7ON5CcjUM1VH4-1" vertex="1">
                    <mxGeometry x="90" y="170" width="250" height="180" as="geometry"/>
                </mxCell>
                <mxCell id="MVl414cjY7mtcjHOIsdv-73" value="Header" style="html=1;shadow=0;dashed=0;shape=mxgraph.bootstrap.topButton;rSize=5;perimeter=none;whiteSpace=wrap;fillColor=#0081F4;strokeColor=#0071D5;fontColor=#ffffff;resizeWidth=1;fontSize=18;align=left;spacing=20;" parent="MVl414cjY7mtcjHOIsdv-72" vertex="1">
                    <mxGeometry width="250" height="50" relative="1" as="geometry"/>
                </mxCell>
                <mxCell id="MVl414cjY7mtcjHOIsdv-102" value="Table Crypto" style="shape=table;html=1;whiteSpace=wrap;startSize=40;container=1;collapsible=0;childLayout=tableLayout;fontStyle=1;align=center;labelBackgroundColor=none;strokeColor=#FF33FF;fillColor=#B266FF;gradientColor=none;fontSize=24;" parent="IjTcNjQ7ON5CcjUM1VH4-1" vertex="1">
                    <mxGeometry x="90" y="380" width="1140" height="220" as="geometry"/>
                </mxCell>
                <mxCell id="MVl414cjY7mtcjHOIsdv-103" value="" style="shape=partialRectangle;html=1;whiteSpace=wrap;collapsible=0;dropTarget=0;pointerEvents=0;fillColor=none;top=0;left=0;bottom=0;right=0;points=[[0,0.5],[1,0.5]];portConstraint=eastwest;" parent="MVl414cjY7mtcjHOIsdv-102" vertex="1">
                    <mxGeometry y="40" width="1140" height="60" as="geometry"/>
                </mxCell>
                <mxCell id="MVl414cjY7mtcjHOIsdv-104" value="0000000000000000000" style="shape=partialRectangle;html=1;whiteSpace=wrap;connectable=0;fillColor=none;top=0;left=0;bottom=0;right=0;overflow=hidden;" parent="MVl414cjY7mtcjHOIsdv-103" vertex="1">
                    <mxGeometry width="381" height="60" as="geometry"/>
                </mxCell>
                <mxCell id="MVl414cjY7mtcjHOIsdv-105" value="00000000000000000000" style="shape=partialRectangle;html=1;whiteSpace=wrap;connectable=0;fillColor=none;top=0;left=0;bottom=0;right=0;overflow=hidden;" parent="MVl414cjY7mtcjHOIsdv-103" vertex="1">
                    <mxGeometry x="381" width="378" height="60" as="geometry"/>
                </mxCell>
                <mxCell id="MVl414cjY7mtcjHOIsdv-106" value="0000000000000000000" style="shape=partialRectangle;html=1;whiteSpace=wrap;connectable=0;fillColor=none;top=0;left=0;bottom=0;right=0;overflow=hidden;" parent="MVl414cjY7mtcjHOIsdv-103" vertex="1">
                    <mxGeometry x="759" width="381" height="60" as="geometry"/>
                </mxCell>
                <mxCell id="MVl414cjY7mtcjHOIsdv-107" value="" style="shape=partialRectangle;html=1;whiteSpace=wrap;collapsible=0;dropTarget=0;pointerEvents=0;fillColor=none;top=0;left=0;bottom=0;right=0;points=[[0,0.5],[1,0.5]];portConstraint=eastwest;" parent="MVl414cjY7mtcjHOIsdv-102" vertex="1">
                    <mxGeometry y="100" width="1140" height="60" as="geometry"/>
                </mxCell>
                <mxCell id="MVl414cjY7mtcjHOIsdv-108" value="&lt;span&gt;00000000000000000000&lt;/span&gt;" style="shape=partialRectangle;html=1;whiteSpace=wrap;connectable=0;fillColor=none;top=0;left=0;bottom=0;right=0;overflow=hidden;" parent="MVl414cjY7mtcjHOIsdv-107" vertex="1">
                    <mxGeometry width="381" height="60" as="geometry"/>
                </mxCell>
                <mxCell id="MVl414cjY7mtcjHOIsdv-109" value="00000000000000000000" style="shape=partialRectangle;html=1;whiteSpace=wrap;connectable=0;fillColor=none;top=0;left=0;bottom=0;right=0;overflow=hidden;" parent="MVl414cjY7mtcjHOIsdv-107" vertex="1">
                    <mxGeometry x="381" width="378" height="60" as="geometry"/>
                </mxCell>
                <mxCell id="MVl414cjY7mtcjHOIsdv-110" value="00000000000000000000" style="shape=partialRectangle;html=1;whiteSpace=wrap;connectable=0;fillColor=none;top=0;left=0;bottom=0;right=0;overflow=hidden;" parent="MVl414cjY7mtcjHOIsdv-107" vertex="1">
                    <mxGeometry x="759" width="381" height="60" as="geometry"/>
                </mxCell>
                <mxCell id="MVl414cjY7mtcjHOIsdv-111" value="" style="shape=partialRectangle;html=1;whiteSpace=wrap;collapsible=0;dropTarget=0;pointerEvents=0;fillColor=none;top=0;left=0;bottom=0;right=0;points=[[0,0.5],[1,0.5]];portConstraint=eastwest;" parent="MVl414cjY7mtcjHOIsdv-102" vertex="1">
                    <mxGeometry y="160" width="1140" height="60" as="geometry"/>
                </mxCell>
                <mxCell id="MVl414cjY7mtcjHOIsdv-112" value="&lt;span&gt;00000000000000000000&lt;/span&gt;" style="shape=partialRectangle;html=1;whiteSpace=wrap;connectable=0;fillColor=none;top=0;left=0;bottom=0;right=0;overflow=hidden;" parent="MVl414cjY7mtcjHOIsdv-111" vertex="1">
                    <mxGeometry width="381" height="60" as="geometry"/>
                </mxCell>
                <mxCell id="MVl414cjY7mtcjHOIsdv-113" value="00000000000000000000" style="shape=partialRectangle;html=1;whiteSpace=wrap;connectable=0;fillColor=none;top=0;left=0;bottom=0;right=0;overflow=hidden;" parent="MVl414cjY7mtcjHOIsdv-111" vertex="1">
                    <mxGeometry x="381" width="378" height="60" as="geometry"/>
                </mxCell>
                <mxCell id="MVl414cjY7mtcjHOIsdv-114" value="&lt;span&gt;0000000000000000000&lt;/span&gt;" style="shape=partialRectangle;html=1;whiteSpace=wrap;connectable=0;fillColor=none;top=0;left=0;bottom=0;right=0;overflow=hidden;" parent="MVl414cjY7mtcjHOIsdv-111" vertex="1">
                    <mxGeometry x="759" width="381" height="60" as="geometry"/>
                </mxCell>
                <mxCell id="0" value="" style="verticalLabelPosition=bottom;shadow=0;dashed=0;align=center;html=1;verticalAlign=top;strokeWidth=1;shape=mxgraph.mockup.graphics.lineChart;strokeColor=none;strokeColor2=#666666;strokeColor3=#008cff;strokeColor4=#dddddd;fillColor=#1B1C1D;" vertex="1" parent="IjTcNjQ7ON5CcjUM1VH4-1">
                    <mxGeometry x="100" y="610" width="1120" height="140" as="geometry"/>
                </mxCell>
                <mxCell id="1" value="Search" style="strokeWidth=1;shadow=0;dashed=0;align=center;html=1;shape=mxgraph.mockup.forms.searchBox;strokeColor=#999999;mainText=;strokeColor2=#008cff;fontColor=#666666;fontSize=17;align=left;spacingLeft=3;" vertex="1" parent="IjTcNjQ7ON5CcjUM1VH4-1">
                    <mxGeometry x="1370" y="15" width="200" height="45" as="geometry"/>
                </mxCell>
            </root>
        </mxGraphModel>
    </diagram>
    <diagram id="w8bcVgfDO4wL2Ua7MRId" name="Page-2">
        <mxGraphModel dx="2003" dy="1443" grid="1" gridSize="10" guides="1" tooltips="1" connect="1" arrows="1" fold="1" page="1" pageScale="1" pageWidth="1600" pageHeight="900" math="0" shadow="0">
            <root>
                <mxCell id="LJcgTY-p9OioY2rNX3a5-0"/>
                <mxCell id="LJcgTY-p9OioY2rNX3a5-1" parent="LJcgTY-p9OioY2rNX3a5-0"/>
                <mxCell id="hzXE360W12aSvoN2Diwf-0" value="" style="whiteSpace=wrap;html=1;fillColor=#1B1C1D;" vertex="1" parent="LJcgTY-p9OioY2rNX3a5-1">
                    <mxGeometry width="1600" height="80" as="geometry"/>
                </mxCell>
                <mxCell id="hzXE360W12aSvoN2Diwf-1" value="&lt;span style=&quot;font-size: 26px;&quot;&gt;Logo&lt;br style=&quot;font-size: 26px;&quot;&gt;&lt;/span&gt;" style="text;html=1;strokeColor=none;fillColor=none;align=center;verticalAlign=middle;whiteSpace=wrap;rounded=0;fontSize=26;fontStyle=1;labelBackgroundColor=none;labelBorderColor=none;" vertex="1" parent="LJcgTY-p9OioY2rNX3a5-1">
                    <mxGeometry x="20" y="15" width="140" height="50" as="geometry"/>
                </mxCell>
                <mxCell id="hzXE360W12aSvoN2Diwf-2" value="&lt;font style=&quot;font-size: 26px;&quot;&gt;Home&lt;/font&gt;" style="rounded=0;whiteSpace=wrap;html=1;fillColor=#6a00ff;strokeColor=#3700CC;fontColor=#ffffff;fontSize=26;fontStyle=1;labelBackgroundColor=none;labelBorderColor=none;" vertex="1" parent="LJcgTY-p9OioY2rNX3a5-1">
                    <mxGeometry x="160" width="120" height="80" as="geometry"/>
                </mxCell>
                <mxCell id="hzXE360W12aSvoN2Diwf-3" value="&lt;font style=&quot;font-size: 26px;&quot;&gt;Blog&lt;/font&gt;" style="rounded=0;whiteSpace=wrap;html=1;fillColor=#fa6800;strokeColor=#C73500;fontColor=#ffffff;fontSize=26;fontStyle=1;labelBackgroundColor=none;labelBorderColor=none;" vertex="1" parent="LJcgTY-p9OioY2rNX3a5-1">
                    <mxGeometry x="281" width="120" height="80" as="geometry"/>
                </mxCell>
                <mxCell id="hzXE360W12aSvoN2Diwf-4" value="&lt;font style=&quot;font-size: 26px;&quot;&gt;Aboute&lt;br style=&quot;font-size: 26px;&quot;&gt;&lt;/font&gt;" style="rounded=0;whiteSpace=wrap;html=1;fillColor=#0050ef;strokeColor=#001DBC;fontColor=#ffffff;fontSize=26;fontStyle=1;labelBackgroundColor=none;labelBorderColor=none;" vertex="1" parent="LJcgTY-p9OioY2rNX3a5-1">
                    <mxGeometry x="401" width="120" height="80" as="geometry"/>
                </mxCell>
                <mxCell id="hzXE360W12aSvoN2Diwf-5" value="Search" style="strokeWidth=1;shadow=0;dashed=0;align=center;html=1;shape=mxgraph.mockup.forms.searchBox;strokeColor=#999999;mainText=;strokeColor2=#008cff;fontColor=#666666;fontSize=17;align=left;spacingLeft=3;" vertex="1" parent="LJcgTY-p9OioY2rNX3a5-1">
                    <mxGeometry x="1370" y="15" width="200" height="45" as="geometry"/>
                </mxCell>
            </root>
        </mxGraphModel>
    </diagram>
</mxfile>